<svg width="58" height="44" viewBox="0 0 58 44" fill="none" xmlns="http://www.w3.org/2000/svg">
<path d="M12.4398 43L0.0567774 0.299997H6.70578L17.0758 35.68L14.6358 43H12.4398ZM32.1428 43L20.1258 0.299997H26.7748L36.7178 35.802L34.3388 43H32.1428ZM18.0518 28.543L15.0628 18.356L20.1258 0.299997H26.7748L18.6618 28.543H18.0518ZM38.1208 28.543L35.1318 18.356L40.4998 0.299997H47.1488L38.7308 28.543H38.1208ZM53.6143 43.305C52.557 43.305 51.642 42.939 50.8693 42.207C50.1373 41.4343 49.7713 40.5193 49.7713 39.462C49.7713 38.364 50.1373 37.449 50.8693 36.717C51.642 35.9443 52.557 35.558 53.6143 35.558C54.7123 35.558 55.6273 35.9443 56.3593 36.717C57.132 37.449 57.5183 38.364 57.5183 39.462C57.5183 40.5193 57.132 41.4343 56.3593 42.207C55.6273 42.939 54.7123 43.305 53.6143 43.305Z" fill="black"/>
</svg>
